<?xml version="1.0" encoding="UTF-8" standalone="no"?>
<!-- Created with Inkscape (http://www.inkscape.org/) -->

<svg
   version="1.1"
   id="svg2"
   width="2560"
   height="1280"
   viewBox="0 0 2560 1280"
   xmlns="http://www.w3.org/2000/svg"
   xmlns:svg="http://www.w3.org/2000/svg">
  <defs
     id="defs6">
    <clipPath
       clipPathUnits="userSpaceOnUse"
       id="clipPath16">
      <path
         d="M 0,960 H 1920 V 0 H 0 Z"
         id="path14" />
    </clipPath>
    <linearGradient
       x1="0"
       y1="0"
       x2="1"
       y2="0"
       gradientUnits="userSpaceOnUse"
       gradientTransform="matrix(1920,0,0,-1920,0,480)"
       spreadMethod="pad"
       id="linearGradient38">
      <stop
         style="stop-opacity:1;stop-color:#293f98"
         offset="0"
         id="stop34" />
      <stop
         style="stop-opacity:1;stop-color:#4269b1"
         offset="1"
         id="stop36" />
    </linearGradient>
    <linearGradient
       x1="0"
       y1="0"
       x2="1"
       y2="0"
       gradientUnits="userSpaceOnUse"
       gradientTransform="matrix(343.99548,-198.6059,-198.6059,-343.99548,457.59567,517.86182)"
       spreadMethod="pad"
       id="linearGradient62">
      <stop
         style="stop-opacity:1;stop-color:#c7eafb"
         offset="0"
         id="stop54" />
      <stop
         style="stop-opacity:1;stop-color:#c7eafb"
         offset="0.00000068"
         id="stop56" />
      <stop
         style="stop-opacity:1;stop-color:#c7eafb"
         offset="0.79908759"
         id="stop58" />
      <stop
         style="stop-opacity:1;stop-color:#727dbc"
         offset="1"
         id="stop60" />
    </linearGradient>
    <linearGradient
       x1="0"
       y1="0"
       x2="1"
       y2="0"
       gradientUnits="userSpaceOnUse"
       gradientTransform="matrix(0,113.83511,113.83511,0,465.14462,470.1503)"
       spreadMethod="pad"
       id="linearGradient86">
      <stop
         style="stop-opacity:1;stop-color:#e1f4fd"
         offset="0"
         id="stop78" />
      <stop
         style="stop-opacity:1;stop-color:#e1f4fd"
         offset="0.00000068"
         id="stop80" />
      <stop
         style="stop-opacity:1;stop-color:#e1f4fd"
         offset="0.58496264"
         id="stop82" />
      <stop
         style="stop-opacity:1;stop-color:#4269b1"
         offset="1"
         id="stop84" />
    </linearGradient>
    <linearGradient
       x1="0"
       y1="0"
       x2="1"
       y2="0"
       gradientUnits="userSpaceOnUse"
       gradientTransform="matrix(0,113.83511,113.83511,0,585.76868,470.1503)"
       spreadMethod="pad"
       id="linearGradient110">
      <stop
         style="stop-opacity:1;stop-color:#e1f4fd"
         offset="0"
         id="stop102" />
      <stop
         style="stop-opacity:1;stop-color:#e1f4fd"
         offset="0.00000068"
         id="stop104" />
      <stop
         style="stop-opacity:1;stop-color:#e1f4fd"
         offset="0.58496264"
         id="stop106" />
      <stop
         style="stop-opacity:1;stop-color:#4269b1"
         offset="1"
         id="stop108" />
    </linearGradient>
    <linearGradient
       x1="0"
       y1="0"
       x2="1"
       y2="0"
       gradientUnits="userSpaceOnUse"
       gradientTransform="matrix(0,113.83511,113.83511,0,704.95325,470.1503)"
       spreadMethod="pad"
       id="linearGradient134">
      <stop
         style="stop-opacity:1;stop-color:#e1f4fd"
         offset="0"
         id="stop126" />
      <stop
         style="stop-opacity:1;stop-color:#e1f4fd"
         offset="0.00000068"
         id="stop128" />
      <stop
         style="stop-opacity:1;stop-color:#e1f4fd"
         offset="0.58496264"
         id="stop130" />
      <stop
         style="stop-opacity:1;stop-color:#4269b1"
         offset="1"
         id="stop132" />
    </linearGradient>
    <linearGradient
       x1="0"
       y1="0"
       x2="1"
       y2="0"
       gradientUnits="userSpaceOnUse"
       gradientTransform="matrix(0,113.83511,113.83511,0,792.65436,470.1503)"
       spreadMethod="pad"
       id="linearGradient158">
      <stop
         style="stop-opacity:1;stop-color:#e1f4fd"
         offset="0"
         id="stop150" />
      <stop
         style="stop-opacity:1;stop-color:#e1f4fd"
         offset="0.00000068"
         id="stop152" />
      <stop
         style="stop-opacity:1;stop-color:#e1f4fd"
         offset="0.58496264"
         id="stop154" />
      <stop
         style="stop-opacity:1;stop-color:#4269b1"
         offset="1"
         id="stop156" />
    </linearGradient>
    <linearGradient
       x1="0"
       y1="0"
       x2="1"
       y2="0"
       gradientUnits="userSpaceOnUse"
       gradientTransform="matrix(0,224.97592,224.97592,0,270.52243,324.74619)"
       spreadMethod="pad"
       id="linearGradient182">
      <stop
         style="stop-opacity:1;stop-color:#e1f4fd"
         offset="0"
         id="stop174" />
      <stop
         style="stop-opacity:1;stop-color:#e1f4fd"
         offset="0.00000068"
         id="stop176" />
      <stop
         style="stop-opacity:1;stop-color:#e1f4fd"
         offset="0.58496264"
         id="stop178" />
      <stop
         style="stop-opacity:1;stop-color:#4269b1"
         offset="1"
         id="stop180" />
    </linearGradient>
    <linearGradient
       x1="0"
       y1="0"
       x2="1"
       y2="0"
       gradientUnits="userSpaceOnUse"
       gradientTransform="matrix(0,224.97592,224.97592,0,251.33318,324.74619)"
       spreadMethod="pad"
       id="linearGradient206">
      <stop
         style="stop-opacity:1;stop-color:#e1f4fd"
         offset="0"
         id="stop198" />
      <stop
         style="stop-opacity:1;stop-color:#e1f4fd"
         offset="0.00000068"
         id="stop200" />
      <stop
         style="stop-opacity:1;stop-color:#e1f4fd"
         offset="0.58496264"
         id="stop202" />
      <stop
         style="stop-opacity:1;stop-color:#4269b1"
         offset="1"
         id="stop204" />
    </linearGradient>
    <linearGradient
       x1="0"
       y1="0"
       x2="1"
       y2="0"
       gradientUnits="userSpaceOnUse"
       gradientTransform="matrix(0,224.97592,224.97592,0,243.19121,324.74619)"
       spreadMethod="pad"
       id="linearGradient230">
      <stop
         style="stop-opacity:1;stop-color:#e1f4fd"
         offset="0"
         id="stop222" />
      <stop
         style="stop-opacity:1;stop-color:#e1f4fd"
         offset="0.00000068"
         id="stop224" />
      <stop
         style="stop-opacity:1;stop-color:#e1f4fd"
         offset="0.58496264"
         id="stop226" />
      <stop
         style="stop-opacity:1;stop-color:#4269b1"
         offset="1"
         id="stop228" />
    </linearGradient>
    <linearGradient
       x1="0"
       y1="0"
       x2="1"
       y2="0"
       gradientUnits="userSpaceOnUse"
       gradientTransform="matrix(0,224.97592,224.97592,0,302.80661,324.74619)"
       spreadMethod="pad"
       id="linearGradient254">
      <stop
         style="stop-opacity:1;stop-color:#e1f4fd"
         offset="0"
         id="stop246" />
      <stop
         style="stop-opacity:1;stop-color:#e1f4fd"
         offset="0.00000068"
         id="stop248" />
      <stop
         style="stop-opacity:1;stop-color:#e1f4fd"
         offset="0.58496264"
         id="stop250" />
      <stop
         style="stop-opacity:1;stop-color:#4269b1"
         offset="1"
         id="stop252" />
    </linearGradient>
    <linearGradient
       x1="0"
       y1="0"
       x2="1"
       y2="0"
       gradientUnits="userSpaceOnUse"
       gradientTransform="matrix(0,224.97592,224.97592,0,285.33649,324.74619)"
       spreadMethod="pad"
       id="linearGradient278">
      <stop
         style="stop-opacity:1;stop-color:#e1f4fd"
         offset="0"
         id="stop270" />
      <stop
         style="stop-opacity:1;stop-color:#e1f4fd"
         offset="0.00000068"
         id="stop272" />
      <stop
         style="stop-opacity:1;stop-color:#e1f4fd"
         offset="0.58496264"
         id="stop274" />
      <stop
         style="stop-opacity:1;stop-color:#4269b1"
         offset="1"
         id="stop276" />
    </linearGradient>
    <clipPath
       clipPathUnits="userSpaceOnUse"
       id="clipPath296">
      <path
         d="M 0,960 H 1920 V 0 H 0 Z"
         id="path294" />
    </clipPath>
  </defs>
  <g
     id="g8"
     transform="matrix(1.3333333,0,0,-1.3333333,0,1280)">
    <g
       id="g10">
      <g
         id="g12"
         clip-path="url(#clipPath16)">
        <text
           xml:space="preserve"
           transform="matrix(1,0,0,-1,1183.7662,11.6606)"
           style="font-variant:normal;font-weight:normal;font-stretch:normal;font-size:60px;font-family:'Be Vietnam Pro';-inkscape-font-specification:BeVietnamPro-Regular;writing-mode:lr-tb;fill:#ffffff;fill-opacity:1;fill-rule:nonzero;stroke:none"
           id="text20"><tspan
             x="0 207.06 415.62 620.88"
             y="0"
             id="tspan18">2024</tspan></text>
      </g>
    </g>
    <g
       id="g22">
      <g
         id="g24">
        <g
           id="g30">
          <g
             id="g32">
            <path
               d="M 0,0 H 1920 V 960 H 0 Z"
               style="fill:url(#linearGradient38);stroke:none"
               id="path40" />
          </g>
        </g>
      </g>
    </g>
    <g
       id="g42">
      <g
         id="g44">
        <g
           id="g50">
          <g
             id="g52">
            <path
               d="m 798.69,461.092 c -1.422,-1.248 -2.493,-2.837 -3.544,-4.424 v 0 c -1.094,-1.665 -2.264,-3.282 -3.428,-4.905 v 0 c -2.55,-3.561 -5.262,-7.032 -7.659,-10.679 v 0 c -3.615,-5.503 -7.679,-10.677 -11.36,-16.126 v 0 c -1.804,-2.669 -3.861,-5.21 -5.65,-7.862 v 0 c -2.025,-3.006 -4.061,-6.026 -6.183,-8.958 v 0 c -1.364,-1.89 -1.953,-3.799 -1.937,-5.819 v 0 c 0,-0.009 0,-0.019 0,-0.028 v 0 c 0,-0.143 0.007,-0.283 0.015,-0.425 v 0 c 0.002,-0.03 0.002,-0.06 0.004,-0.092 v 0 c 0,-0.012 10e-4,-0.024 0.002,-0.037 v 0 c 0.047,-0.726 0.166,-1.468 0.354,-2.23 v 0 c 0.131,-0.533 0.747,-1.509 1.08,-1.881 v 0 c 0.431,-0.48 1.056,-0.937 1.812,-1.302 v 0 c 0.074,-0.048 0.148,-0.096 0.224,-0.14 v 0 c 0.073,-0.046 0.145,-0.088 0.219,-0.126 v 0 c 0.996,-0.543 2.136,-0.853 3.348,-0.859 v 0 h 0.033 c 0.081,0 0.159,0 0.24,0.006 v 0 c 0.732,0.022 1.437,0.16 2.097,0.39 v 0 c 1.544,0.539 2.843,1.598 3.691,2.965 v 0 c 0.158,0.181 0.311,0.364 0.458,0.551 v 0 c 0.405,0.516 0.774,1.06 1.125,1.615 v 0 c 0.483,0.761 3.964,5.684 3.964,5.684 v 0 c 0,0 25.885,0.024 29.668,0 v 0 c 2.196,-0.015 3.984,0.768 5.622,2.085 v 0 c 1.278,1.026 2.46,2.58 2.64,3.867 v 0 c 0.265,1.893 -0.471,4.035 -1.776,5.709 v 0 c -1.496,1.926 -3.573,2.634 -5.94,2.639 v 0 c -5.688,0.013 -18.908,-0.014 -20.255,-0.018 v 0 h -0.111 c 0,0 0.846,1.071 1.239,1.614 v 0 l 0.162,0.238 c 1.113,1.683 2.286,3.326 3.462,4.965 v 0 c 1.022,1.418 2.046,2.838 3.036,4.28 v 0 c 2.283,3.321 4.56,6.66 6.962,9.906 v 0 c 1.009,1.365 1.581,1.38 2.553,-0.06 v 0 c 0.921,-1.361 1.809,-2.745 2.757,-4.086 v 0 c 3.118,-4.392 6.312,-8.73 9.372,-13.16 v 0 c 6.027,-8.733 12.179,-17.378 18.414,-25.964 v 0 c 0.033,-0.045 0.063,-0.088 0.096,-0.133 v 0 c 0.657,-0.902 1.418,-1.604 2.246,-2.108 v 0 c 0.073,-0.045 0.144,-0.088 0.219,-0.126 v 0 c 1.039,-0.583 2.178,-0.864 3.348,-0.858 v 0 h 0.033 c 0.081,0 0.16,0 0.241,0.005 v 0 c 0.693,0.03 1.397,0.162 2.097,0.391 v 0 c 2.693,0.939 4.646,3.458 4.748,6.447 v 0 c -0.014,0.887 -0.158,1.76 -0.371,2.534 v 0 c -0.237,0.85 -0.565,1.581 -0.916,2.082 v 0 c -2.003,2.862 -4.023,5.709 -5.972,8.604 v 0 c -2.526,3.759 -5.142,7.449 -7.864,11.07 v 0 c -2.339,3.111 -4.298,6.5 -6.638,9.593 v 0 c -2.169,2.865 -4.146,5.856 -6.273,8.742 v 0 c -3.609,4.896 -6.951,9.99 -10.488,14.939 v 0 c -1.573,2.201 -4.023,3.145 -6.354,3.145 v 0 c -1.87,0 -3.662,-0.607 -4.862,-1.66 m -294.645,1.162 c -10.671,-0.177 -19.797,-3.723 -26.763,-12.074 v 0 c -0.402,-0.481 -0.746,-0.763 -1.111,-0.76 v 0 c -0.365,-0.003 -0.709,0.279 -1.111,0.76 v 0 c -6.966,8.351 -16.091,11.897 -26.763,12.074 v 0 c -0.328,0.005 -0.656,0.004 -0.983,0.005 v 0 c -0.504,-0.006 -1.008,-0.018 -1.511,-0.039 v 0 c -4.796,-0.194 -9.53,-0.718 -14.029,-2.648 v 0 c -6.033,-2.59 -10.795,-6.584 -14.584,-11.956 v 0 c -4.078,-5.781 -5.767,-12.226 -5.908,-19.126 v 0 c -0.033,-1.636 -0.051,-3.272 -0.059,-4.91 v 0 c 0,-1.409 0,-2.818 -0.001,-4.228 v 0 c 0.014,-3.8 0.062,-7.6 0.092,-11.399 v 0 c 0.017,-2.144 -0.19,-4.292 0.153,-6.434 v 0 c 0.408,-2.54 2.378,-4.848 4.733,-5.434 v 0 c 0.415,-0.103 0.825,-0.165 1.231,-0.197 v 0 c 1.109,-0.035 2.298,0.197 3.506,0.742 v 0 c 0.22,0.099 0.424,0.211 0.621,0.328 v 0 c 0.619,0.422 1.176,0.956 1.648,1.604 v 0 c 0.203,0.321 0.407,0.641 0.61,0.961 v 0 c 0.372,0.839 0.572,1.779 0.632,2.769 v 0 c 0.012,0.255 0.02,0.508 0.023,0.763 v 0 c 10e-4,0.278 10e-4,0.556 0.002,0.834 v 0 c -0.003,0.545 -0.013,1.089 -0.013,1.633 v 0 c 0,7.376 -0.012,14.754 0,22.131 v 0 c 0,0.304 -10e-4,0.607 -0.002,0.912 v 0 c 0,0.057 0.003,0.114 0.003,0.172 v 0 c 0,0.135 0,0.27 0,0.405 v 0 c 0.002,1.236 0.027,2.479 0.388,3.66 v 0 c 0.47,2.43 1.375,4.732 2.78,6.842 v 0 c 2.417,3.628 5.614,6.439 9.849,7.923 v 0 c 0.08,0.028 0.16,0.056 0.241,0.085 v 0 c 0.11,0.039 0.223,0.077 0.335,0.116 v 0 c 0.291,0.101 0.582,0.196 0.874,0.284 v 0 c 0.03,0.008 0.058,0.019 0.087,0.028 v 0 c 0.022,0.007 0.045,0.012 0.066,0.018 v 0 c 0.118,0.035 0.235,0.065 0.353,0.096 v 0 c 2.321,0.613 4.686,0.65 7.058,0.596 v 0 c 1.631,0.064 3.253,0.06 4.86,-0.091 v 0 c 4.924,-0.113 9.036,-2.364 12.416,-5.635 v 0 c 3.785,-3.663 5.842,-8.346 5.788,-13.812 v 0 c -0.069,-7.045 -0.018,-14.092 -0.016,-21.138 v 0 c 10e-4,-2.099 -0.079,-4.202 0.039,-6.294 v 0 c 0.145,-2.552 2.289,-5.018 4.765,-5.743 v 0 c 0.507,-0.121 1.041,-0.197 1.606,-0.216 v 0 c 0.073,-10e-4 0.148,-0.005 0.221,-0.004 v 0 c 0.073,-0.001 0.148,0.003 0.221,0.004 v 0 c 0.565,0.019 1.099,0.095 1.605,0.216 v 0 c 2.477,0.725 4.621,3.191 4.766,5.743 v 0 c 0.119,2.092 0.038,4.195 0.039,6.294 v 0 c 0.002,7.046 0.053,14.093 -0.016,21.138 v 0 c -0.054,5.466 2.003,10.149 5.788,13.812 v 0 c 3.38,3.271 7.492,5.522 12.416,5.635 v 0 c 1.607,0.151 3.23,0.155 4.86,0.091 v 0 c 2.372,0.054 4.737,0.017 7.057,-0.596 v 0 c 0.118,-0.031 0.236,-0.061 0.354,-0.096 v 0 c 0.022,-0.006 0.044,-0.011 0.066,-0.018 v 0 c 0.029,-0.009 0.057,-0.02 0.087,-0.028 v 0 c 0.292,-0.088 0.583,-0.183 0.874,-0.284 v 0 c 0.112,-0.039 0.225,-0.077 0.336,-0.116 v 0 c 0.08,-0.029 0.16,-0.057 0.24,-0.085 v 0 c 4.235,-1.484 7.432,-4.295 9.85,-7.923 v 0 c 1.404,-2.11 2.309,-4.412 2.778,-6.842 v 0 c 0.362,-1.181 0.387,-2.424 0.389,-3.66 v 0 c 0,-0.135 0,-0.27 0,-0.405 v 0 c 0,-0.058 0.003,-0.115 0.002,-0.172 v 0 c 0,-0.305 -0.001,-0.608 -0.002,-0.911 v 0 c 0.013,-7.377 10e-4,-14.755 10e-4,-22.132 v 0 c 0,-0.544 -0.01,-1.088 -0.013,-1.633 v 0 c 10e-4,-0.278 10e-4,-0.556 0.002,-0.834 v 0 c 0.003,-0.255 0.011,-0.508 0.022,-0.763 v 0 c 0.061,-0.99 0.261,-1.93 0.632,-2.769 v 0 c 0.204,-0.32 0.408,-0.64 0.611,-0.961 v 0 c 0.472,-0.648 1.029,-1.182 1.648,-1.604 v 0 c 0.197,-0.117 0.401,-0.229 0.621,-0.328 v 0 c 1.208,-0.545 2.397,-0.777 3.506,-0.742 v 0 c 0.406,0.032 0.817,0.094 1.232,0.197 v 0 c 2.354,0.586 4.324,2.894 4.732,5.434 v 0 c 0.343,2.142 0.136,4.29 0.153,6.434 v 0 c 0.03,3.799 0.078,7.598 0.092,11.397 v 0 c 0,1.41 0,2.82 0,4.23 v 0 c -0.008,1.638 -0.026,3.274 -0.06,4.91 v 0 c -0.141,6.9 -1.83,13.345 -5.908,19.126 v 0 c -3.789,5.372 -8.552,9.366 -14.584,11.956 v 0 c -4.499,1.93 -9.233,2.454 -14.029,2.648 v 0 c -0.504,0.021 -1.007,0.033 -1.51,0.039 v 0 c -0.328,-0.001 -0.655,0 -0.984,-0.005 m 231.861,-6.814 v -52.488 c 0,-3.762 3.049,-6.812 6.811,-6.812 v 0 c 3.762,0 6.811,3.05 6.811,6.812 v 0 52.488 c 0,3.762 -3.049,6.812 -6.811,6.812 v 0 c -3.762,0 -6.811,-3.05 -6.811,-6.812 m -133.918,6.803 c -4.98,-0.007 -9.962,-0.014 -14.942,-0.006 v 0 c -5.63,0.009 -11.123,-0.561 -16.429,-2.673 v 0 c -4.757,-1.892 -8.71,-4.879 -12.044,-8.623 v 0 c -2.814,-3.16 -4.991,-6.774 -6.406,-10.855 v 0 c -2.311,-6.67 -2.568,-13.337 -0.627,-20.109 v 0 c 1.663,-5.802 4.745,-10.719 9.191,-14.789 v 0 c 5.706,-5.224 12.423,-8.407 20.097,-9.106 v 0 c 4.695,-0.428 9.414,-0.326 14.132,-0.224 v 0 c 2.284,0.049 4.567,0.099 6.848,0.089 v 0 c 6.996,0 13.993,-0.042 20.988,0.024 v 0 c 2.314,0.022 4.707,0.46 6.357,2.15 v 0 c 1.976,2.024 2.186,4.63 1.159,7.262 v 0 c -0.907,2.325 -4.217,3.792 -6.171,3.793 v 0 c -13.493,0.002 -26.986,0.037 -40.478,0.068 v 0 c -3.578,0.009 -6.834,1.093 -9.949,2.821 v 0 c -4.383,2.431 -7.528,5.974 -9.14,10.639 v 0 c -1.961,5.674 -1.401,11.395 1.818,16.415 v 0 c 3.659,5.709 8.883,9.502 16.004,9.56 v 0 c 8.018,0.064 16.036,0.063 24.055,0.062 v 0 c 5.425,-10e-4 10.849,-10e-4 16.274,0.019 v 0 c 1.978,0.007 3.899,0.226 5.661,1.485 v 0 c 2.804,2.003 3.157,6.398 1.522,8.714 v 0 c -1.69,2.393 -4.259,3.259 -7.031,3.272 v 0 c -3.605,0.015 -7.21,0.02 -10.815,0.02 v 0 c -3.358,0 -6.715,-0.004 -10.074,-0.008 m 52.575,-0.025 c -1.599,-0.001 -3.194,-0.047 -4.74,-0.571 v 0 c -4.885,-1.655 -5.908,-6.522 -3.296,-10.212 v 0 c 1.4,-1.977 3.458,-2.622 5.754,-2.629 v 0 c 7.047,-0.022 14.095,-0.008 21.143,-0.008 v 0 -0.037 c 6.349,0 12.696,-0.038 19.045,0.014 v 0 c 3.535,0.03 6.777,-0.822 9.868,-2.546 v 0 c 6.158,-3.436 11.251,-11.413 9.96,-19.805 v 0 c -0.833,-5.409 -3.573,-9.493 -7.62,-12.881 v 0 c -1.341,-1.123 -2.886,-1.969 -4.501,-2.64 v 0 c -3.575,-1.484 -7.344,-1.781 -11.168,-1.771 v 0 c -8.148,0.022 -16.296,0.006 -24.443,0.006 v 0 c -0.393,0 -0.784,-10e-4 -1.177,-0.002 v 0 c -1.157,-0.002 -2.315,-0.006 -3.47,0.023 v 0 c -0.935,0.021 -1.584,0.283 -1.563,1.496 v 0 c 0.082,4.595 0.093,9.192 0.083,13.789 v 0 c -0.007,3.147 0.082,6.309 -0.193,9.436 v 0 c -0.286,3.245 -3.052,5.963 -7.078,5.825 v 0 c -3.121,-0.107 -6.114,-3.552 -5.999,-6.465 v 0 c 0.169,-4.291 0.053,-8.594 0.039,-12.891 v 0 c -0.019,-5.846 -0.075,-11.692 -0.074,-17.538 v 0 c 0,-3.107 1.286,-5.17 3.798,-5.979 v 0 c 1.801,-0.582 3.649,-0.982 5.584,-0.978 v 0 c 7.081,0.016 14.162,0.014 21.244,0.013 v 0 c 5.665,-0.001 11.33,-0.002 16.995,0.006 v 0 c 4.676,0.006 9.14,1.186 13.319,3.127 v 0 c 6.967,3.234 12.41,8.228 16.057,15.065 v 0 c 1.487,2.785 2.561,5.716 3.095,8.84 v 0 c 0.741,4.325 0.714,8.613 -0.169,12.939 v 0 c -1.351,6.623 -4.56,12.232 -9.301,16.899 v 0 c -6.7,6.596 -15,9.44 -24.302,9.471 v 0 c -4.898,0.016 -9.798,0.021 -14.696,0.021 v 0 c -7.399,0 -14.795,-0.012 -22.194,-0.017 m -67.072,-26.539 c -0.217,-10e-4 -0.434,0 -0.65,0 v 0 c -1.333,0.002 -2.67,0.004 -3.99,-0.128 v 0 c -1.668,-0.168 -3.268,-0.778 -4.378,-2.05 v 0 c -2.102,-2.41 -2.315,-5.222 -0.785,-7.934 v 0 c 1.157,-2.051 3.166,-3.148 5.601,-3.155 v 0 c 6.795,-0.02 13.59,-0.007 20.385,-0.007 v 0 c 0,-0.031 0,-0.063 0,-0.095 v 0 c 3.698,0 7.396,-10e-4 11.094,0 v 0 c 3.149,10e-4 6.297,-0.002 9.445,0.009 v 0 c 3.521,0.011 6.644,2.789 6.703,6.413 v 0 c 0.061,3.707 -2.214,6.37 -6.101,6.845 v 0 c -0.742,0.09 -1.496,0.102 -2.244,0.103 v 0 c -6.205,0.003 -12.411,0.005 -18.616,0.005 v 0 c -5.488,0 -10.976,-0.002 -16.464,-0.006"
               style="fill:url(#linearGradient62);stroke:none"
               id="path64" />
          </g>
        </g>
      </g>
    </g>
    <g
       id="g66">
      <g
         id="g68">
        <g
           id="g74">
          <g
             id="g76">
            <path
               d="m 459.143,577.877 c -24.367,0 -50.152,-21.478 -47.768,-46.729 v 0 c 2.09,-22.13 27.432,-38.497 49.22,-38.497 v 0 h 45.78 c 7.8,0 11.475,2.527 12.426,6.393 v 0 c 1.385,5.642 -2.829,10.653 -8.125,10.653 v 0 H 460.29 c -12.798,0 -24.353,9.26 -26.024,22.209 v 0 c -2.007,15.501 9.965,28.929 24.877,28.929 v 0 h 51.533 c 4.794,0 8.705,4.105 8.372,9.157 v 0 c -0.302,4.552 -4.399,7.885 -8.872,7.885 v 0 z m 0.356,-34.088 c -3.87,0 -7.53,-2.488 -8.478,-6.313 v 0 c -1.393,-5.617 2.823,-10.733 8.122,-10.733 v 0 h 51.533 c 4.603,-0.076 8.392,3.785 8.392,8.561 v 0 c 0,4.696 -3.789,8.485 -8.392,8.485 v 0 z"
               style="fill:url(#linearGradient86);stroke:none"
               id="path88" />
          </g>
        </g>
      </g>
    </g>
    <g
       id="g90">
      <g
         id="g92">
        <g
           id="g98">
          <g
             id="g100">
            <path
               d="m 574.387,577.881 c -23.044,0 -41.897,-19.238 -41.897,-42.746 v 0 -33.561 c 0,-3.945 2.438,-7.678 6.188,-8.648 v 0 c 5.502,-1.422 10.52,2.882 10.52,8.285 v 0 34.092 c 0,14.011 11.209,25.528 25.017,25.531 v 0 h 23.107 c 13.809,-0.003 25.017,-11.52 25.017,-25.531 v 0 -33.661 c 0,-3.99 2.474,-7.751 6.267,-8.721 v 0 c 5.529,-1.409 10.442,2.892 10.442,8.29 v 0 33.924 c 0,23.508 -18.857,42.746 -41.898,42.746 v 0 z"
               style="fill:url(#linearGradient110);stroke:none"
               id="path112" />
          </g>
        </g>
      </g>
    </g>
    <g
       id="g114">
      <g
         id="g116">
        <g
           id="g122">
          <g
             id="g124">
            <path
               d="m 704.927,577.879 c -2.748,0.151 -5.57,-1.138 -7.277,-3.638 v 0 C 670.77,535.15 677.6,545.304 650.72,506.212 v 0 c -2.673,-3.865 -1.781,-9.168 2.003,-11.895 v 0 c 3.789,-2.652 8.987,-1.741 11.66,2.124 v 0 l 7.303,10.534 c 0.032,0.044 0.082,0.072 0.133,0.072 v 0 h 38.602 c 5.319,-0.088 9.546,5.079 8.106,10.717 v 0 c -0.979,3.845 -4.673,6.329 -8.567,6.329 v 0 h -26.172 c -0.137,0 -0.215,0.152 -0.137,0.263 v 0 l 21.138,30.675 c 0.067,0.096 0.208,0.096 0.275,0 v 0 l 40.48,-58.59 c 2.673,-3.865 7.871,-4.776 11.659,-2.124 v 0 c 3.711,2.727 4.678,8.03 2.005,11.895 v 0 c -26.881,39.092 -20.052,28.938 -47.006,68.029 v 0 c -1.616,2.368 -4.167,3.65 -6.83,3.65 v 0 c -0.148,0 -0.296,-0.004 -0.445,-0.012"
               style="fill:url(#linearGradient134);stroke:none"
               id="path136" />
          </g>
        </g>
      </g>
    </g>
    <g
       id="g138">
      <g
         id="g140">
        <g
           id="g146">
          <g
             id="g148">
            <path
               d="M 833.245,574.244 792.764,515.65 c -0.066,-0.095 -0.207,-0.095 -0.274,0 v 0 l -40.406,58.594 c -2.673,3.862 -7.87,4.772 -11.659,2.121 v 0 c -3.785,-2.727 -4.677,-8.03 -2.004,-11.896 v 0 c 26.881,-39.091 20.05,-28.937 46.931,-68.029 v 0 c 1.706,-2.499 4.528,-3.789 7.275,-3.637 v 0 c 2.823,-0.152 5.569,1.138 7.276,3.637 v 0 c 26.955,39.092 20.125,28.938 47.005,68.029 v 0 c 2.673,3.866 1.707,9.169 -2.003,11.896 v 0 c -1.459,1.02 -3.126,1.513 -4.778,1.513 v 0 c -2.639,0 -5.238,-1.258 -6.882,-3.634"
               style="fill:url(#linearGradient158);stroke:none"
               id="path160" />
          </g>
        </g>
      </g>
    </g>
    <g
       id="g162">
      <g
         id="g164">
        <g
           id="g170">
          <g
             id="g172">
            <path
               d="m 365.294,544.144 c -2.944,-5.278 -8.583,-8.853 -15.056,-8.853 v 0 c -3.543,0 -6.835,1.074 -9.574,2.906 v 0 c -0.077,0.045 -0.161,0.058 -0.243,0.019 v 0 c -15.45,-6.853 -32.358,-15.841 -50.79,-26.989 v 0 c -27.555,-16.664 -55.329,-28.462 -82.537,-35.064 v 0 c -15.828,-3.845 -31.495,-5.94 -46.777,-6.281 v 0 c -0.155,0 -0.276,-0.142 -0.264,-0.295 v 0 c 0.997,-10.905 3.536,-21.364 7.406,-31.149 v 0 c 2.334,1.189 4.977,1.864 7.78,1.864 v 0 c 5.889,0 11.09,-2.958 14.201,-7.464 v 0 c 0.059,-0.084 0.155,-0.129 0.251,-0.11 v 0 c 26.167,4.565 57.74,15.051 93.112,36.434 v 0 c 38.368,23.203 70.81,37.436 97.979,42.914 v 0 c 0.154,0.032 0.244,0.192 0.199,0.347 v 0 c -3.42,11.451 -8.602,22.135 -15.237,31.747 v 0 c -0.054,0.075 -0.136,0.112 -0.217,0.112 v 0 c -0.091,0 -0.182,-0.047 -0.233,-0.138"
               style="fill:url(#linearGradient182);stroke:none"
               id="path184" />
          </g>
        </g>
      </g>
    </g>
    <g
       id="g186">
      <g
         id="g188">
        <g
           id="g194">
          <g
             id="g196">
            <path
               d="m 320.869,582.167 c -9.888,-5.099 -20.291,-10.956 -31.233,-17.578 v 0 c -27.56,-16.657 -55.335,-28.461 -82.542,-35.064 v 0 c -5.458,-1.324 -10.891,-2.436 -16.298,-3.349 v 0 c -0.09,-0.013 -0.161,-0.071 -0.192,-0.155 v 0 c -2.476,-6.474 -8.744,-11.071 -16.092,-11.071 v 0 c -3.035,0 -5.89,0.791 -8.365,2.174 v 0 c -0.147,0.077 -0.327,0.012 -0.379,-0.149 v 0 c -3.658,-10.568 -5.799,-21.852 -6.146,-33.584 v 0 c -0.007,-0.161 0.122,-0.296 0.283,-0.29 v 0 c 30.274,0.714 72.777,9.123 122.897,39.43 v 0 c 18.13,10.961 34.93,19.911 50.488,26.892 v 0 c -0.18,1.003 -0.283,2.038 -0.283,3.1 v 0 c 0,6.885 4.044,12.825 9.881,15.583 v 0 c 0.18,0.083 0.213,0.321 0.058,0.444 v 0 c -6.699,5.33 -14.015,9.907 -21.827,13.623 v 0 c -0.04,0.018 -0.081,0.028 -0.122,0.028 v 0 c -0.044,0 -0.088,-0.011 -0.128,-0.034"
               style="fill:url(#linearGradient206);stroke:none"
               id="path208" />
          </g>
        </g>
      </g>
    </g>
    <g
       id="g210">
      <g
         id="g212">
        <g
           id="g218">
          <g
             id="g220">
            <path
               d="m 182.245,547.932 c -0.103,-0.135 -0.052,-0.322 0.097,-0.392 v 0 c 3.33,-1.704 6.036,-4.462 7.676,-7.837 v 0 c 0.051,-0.103 0.16,-0.167 0.276,-0.148 v 0 c 26.044,4.629 57.405,15.114 92.508,36.337 v 0 c 7.297,4.41 14.375,8.492 21.248,12.26 v 0 c 0.218,0.116 0.173,0.437 -0.064,0.508 v 0 c -9.952,2.867 -20.471,4.41 -31.349,4.41 v 0 c -36.948,0 -69.761,-17.725 -90.392,-45.138"
               style="fill:url(#linearGradient230);stroke:none"
               id="path232" />
          </g>
        </g>
      </g>
    </g>
    <g
       id="g234">
      <g
         id="g236">
        <g
           id="g242">
          <g
             id="g244">
            <path
               d="M 364.072,440.69 C 342.683,433.657 317.97,421.635 289.631,404.5 v 0 c -20.046,-12.124 -40.208,-21.659 -60.182,-28.505 v 0 c -0.239,-0.084 -0.251,-0.418 -0.014,-0.515 v 0 c 13.308,-5.51 27.903,-8.55 43.204,-8.55 v 0 c 46.398,0 86.258,27.953 103.687,67.928 v 0 c 0.077,0.175 -0.045,0.361 -0.238,0.368 v 0 c -4.622,0.212 -8.768,2.237 -11.746,5.393 v 0 c -0.05,0.056 -0.118,0.085 -0.187,0.085 v 0 c -0.028,0 -0.055,-0.004 -0.083,-0.014"
               style="fill:url(#linearGradient254);stroke:none"
               id="path256" />
          </g>
        </g>
      </g>
    </g>
    <g
       id="g258">
      <g
         id="g260">
        <g
           id="g266">
          <g
             id="g268">
            <path
               d="m 383.768,499.305 c -25.484,-5.034 -56.646,-18.772 -94.135,-41.442 v 0 c -27.56,-16.663 -55.328,-28.46 -82.541,-35.064 v 0 c -4.945,-1.201 -9.876,-2.224 -14.787,-3.085 v 0 c -0.104,-0.02 -0.18,-0.097 -0.2,-0.2 v 0 c -0.919,-4.365 -3.484,-8.126 -7.027,-10.595 v 0 c -0.128,-0.084 -0.154,-0.263 -0.051,-0.386 v 0 c 7.644,-9.354 16.754,-17.473 26.989,-23.986 v 0 c 0.064,-0.039 0.148,-0.052 0.225,-0.033 v 0 c 21.1,5.941 44.823,15.726 70.559,31.284 v 0 c 28.815,17.43 54.293,29.793 76.705,37.193 v 0 c 0.096,0.038 0.16,0.127 0.167,0.231 v 0 c 0.412,9.148 7.953,16.446 17.21,16.446 v 0 c 2.945,0 5.722,-0.746 8.146,-2.052 v 0 c 0.444,4.069 0.681,8.198 0.681,12.383 v 0 c 0,6.506 -0.552,12.871 -1.607,19.074 v 0 c -0.022,0.137 -0.145,0.237 -0.279,0.237 v 0 c -0.018,0 -0.037,-10e-4 -0.055,-0.005"
               style="fill:url(#linearGradient278);stroke:none"
               id="path280" />
          </g>
        </g>
      </g>
    </g>
    <text
       xml:space="preserve"
       transform="matrix(1,0,0,-1,1183.7472,499.3105)"
       style="font-variant:normal;font-weight:normal;font-stretch:normal;font-size:60px;font-family:'Be Vietnam Pro';-inkscape-font-specification:BeVietnamPro-Regular;writing-mode:lr-tb;fill:#ffffff;fill-opacity:1;fill-rule:nonzero;stroke:none"
       id="text284"><tspan
         x="0 53.279999 92.160004 126.24 164.52 178.02 193.02 228.17999 267 282.54001 296.04001 321.42001 344.64001 378.29999 410.88 447.12 481.20001 494.70001 520.08002 554.76001 593.58002 627.65997"
         y="0"
         id="tspan282">mạng lưới truyền thông</tspan></text>
    <text
       xml:space="preserve"
       transform="matrix(1,0,0,-1,1651.1534,439.3105)"
       style="font-variant:normal;font-weight:normal;font-stretch:normal;font-size:36px;font-family:'Be Vietnam Pro';-inkscape-font-specification:BeVietnamPro-Regular;writing-mode:lr-tb;fill:#ffffff;fill-opacity:1;fill-rule:nonzero;stroke:none"
       id="text288"><tspan
         x="0 28.188 44.891998 74.015999 101.592 117.072 147.744 175.32001"
         y="0"
         id="tspan286">hiệu quả</tspan></text>
    <g
       id="g290">
      <g
         id="g292"
         clip-path="url(#clipPath296)">
        <g
           id="g298"
           transform="translate(1190.6133,15.8603)">
          <path
             d="m 0,0 v 4.14 l 9.72,9 c 2.72,2.52 5.109,4.729 7.17,6.63 2.059,1.899 3.669,3.75 4.83,5.549 1.16,1.801 1.74,3.781 1.74,5.941 0,1.8 -0.43,3.319 -1.29,4.559 -0.861,1.241 -1.961,2.191 -3.3,2.851 -1.341,0.66 -2.73,0.99 -4.17,0.99 -1.881,0 -3.42,-0.321 -4.62,-0.96 C 8.88,38.06 7.959,37.27 7.32,36.33 6.68,35.39 6.219,34.449 5.94,33.51 5.66,32.569 5.479,31.459 5.4,30.18 h -5.64 c 0.08,1.44 0.249,2.719 0.51,3.84 0.26,1.119 0.69,2.31 1.29,3.57 0.6,1.26 1.449,2.449 2.55,3.57 1.099,1.119 2.52,2.04 4.26,2.76 1.74,0.72 3.87,1.08 6.39,1.08 2.559,0 4.95,-0.531 7.17,-1.59 2.22,-1.06 4.01,-2.6 5.37,-4.62 1.359,-2.02 2.04,-4.491 2.04,-7.41 0,-2.681 -0.67,-5.11 -2.01,-7.29 -1.341,-2.181 -3.111,-4.311 -5.31,-6.39 -2.2,-2.081 -4.6,-4.32 -7.2,-6.721 L 8.7,5.34 H 30.3 V 0 Z"
             style="fill:#ffffff;fill-opacity:1;fill-rule:nonzero;stroke:none"
             id="path300" />
        </g>
        <g
           id="g302"
           transform="translate(1413.0923,20.7196)">
          <path
             d="m 0,0 c 3.159,0 5.769,1.471 7.83,4.41 2.06,2.941 3.09,7.27 3.09,12.99 0,5.72 -1.03,10.04 -3.09,12.96 -2.061,2.919 -4.671,4.38 -7.83,4.38 -3.16,0 -5.77,-1.461 -7.83,-4.38 -2.061,-2.92 -3.09,-7.24 -3.09,-12.96 0,-5.68 1.029,-10 3.09,-12.96 C -5.77,1.479 -3.16,0 0,0 m 0,-5.399 c -2.76,0 -5.2,0.609 -7.32,1.83 -2.121,1.219 -3.891,2.88 -5.31,4.979 -1.42,2.101 -2.5,4.53 -3.24,7.29 -0.741,2.76 -1.11,5.66 -1.11,8.7 0,3.08 0.369,5.99 1.11,8.731 0.74,2.739 1.82,5.169 3.24,7.289 1.419,2.12 3.189,3.78 5.31,4.98 2.12,1.201 4.56,1.8 7.32,1.8 2.76,0 5.199,-0.599 7.32,-1.8 2.12,-1.2 3.89,-2.86 5.31,-4.98 1.419,-2.12 2.499,-4.55 3.24,-7.289 0.74,-2.741 1.11,-5.651 1.11,-8.731 0,-3.04 -0.37,-5.94 -1.11,-8.7 C 15.129,5.94 14.049,3.511 12.63,1.41 11.21,-0.689 9.44,-2.35 7.32,-3.569 5.199,-4.79 2.76,-5.399 0,-5.399"
             style="fill:#ffffff;fill-opacity:1;fill-rule:nonzero;stroke:none"
             id="path304" />
        </g>
        <g
           id="g306"
           transform="translate(1606.2322,15.8603)">
          <path
             d="m 0,0 v 4.14 l 9.72,9 c 2.72,2.52 5.109,4.729 7.17,6.63 2.059,1.899 3.669,3.75 4.83,5.549 1.16,1.801 1.74,3.781 1.74,5.941 0,1.8 -0.43,3.319 -1.29,4.559 -0.861,1.241 -1.961,2.191 -3.3,2.851 -1.341,0.66 -2.73,0.99 -4.17,0.99 -1.881,0 -3.42,-0.321 -4.62,-0.96 C 8.88,38.06 7.959,37.27 7.32,36.33 6.68,35.39 6.219,34.449 5.94,33.51 5.66,32.569 5.479,31.459 5.4,30.18 h -5.64 c 0.08,1.44 0.249,2.719 0.51,3.84 0.26,1.119 0.69,2.31 1.29,3.57 0.6,1.26 1.449,2.449 2.55,3.57 1.099,1.119 2.52,2.04 4.26,2.76 1.74,0.72 3.87,1.08 6.39,1.08 2.559,0 4.95,-0.531 7.17,-1.59 2.22,-1.06 4.01,-2.6 5.37,-4.62 1.359,-2.02 2.04,-4.491 2.04,-7.41 0,-2.681 -0.67,-5.11 -2.01,-7.29 -1.341,-2.181 -3.111,-4.311 -5.31,-6.39 -2.2,-2.081 -4.6,-4.32 -7.2,-6.721 L 8.7,5.34 H 30.3 V 0 Z"
             style="fill:#ffffff;fill-opacity:1;fill-rule:nonzero;stroke:none"
             id="path308" />
        </g>
        <g
           id="g310"
           transform="translate(1815.9913,31.2802)">
          <path
             d="M 0,0 H 15.66 V 22.08 Z M 15.66,-15.42 V -5.101 L -6.06,-5.04 V 0.3 l 20.4,28.679 h 7.2 V 0 h 7.74 V -5.101 H 21.54 V -15.42 Z"
             style="fill:#ffffff;fill-opacity:1;fill-rule:nonzero;stroke:none"
             id="path312" />
        </g>
      </g>
    </g>
    <text
       xml:space="preserve"
       transform="matrix(1,0,0,-1,1178.7074,77.5391)"
       style="font-variant:normal;font-weight:200;font-stretch:normal;font-size:165px;font-family:'Be Vietnam Pro ExtraLight';-inkscape-font-specification:BeVietnamPro-ExtraLight;writing-mode:lr-tb;fill:#ffffff;fill-opacity:1;fill-rule:nonzero;stroke:none"
       id="text316"><tspan
         x="0 102.135 207.075 341.88 441.70499 479.48999 579.64502"
         y="0"
         id="tspan314">PROFILE</tspan></text>
  </g>
</svg>
