<?xml version="1.0" encoding="UTF-8" standalone="no"?>
<!-- Created with Inkscape (http://www.inkscape.org/) -->

<svg
   version="1.1"
   id="svg2"
   width="2560"
   height="1280"
   viewBox="0 0 2560 1280"
   xmlns="http://www.w3.org/2000/svg"
   xmlns:svg="http://www.w3.org/2000/svg">
  <defs
     id="defs6">
    <linearGradient
       x1="0"
       y1="0"
       x2="1"
       y2="0"
       gradientUnits="userSpaceOnUse"
       gradientTransform="matrix(1920,0,0,-1920,0,480)"
       spreadMethod="pad"
       id="linearGradient28">
      <stop
         style="stop-opacity:1;stop-color:#c7eafb"
         offset="0"
         id="stop22" />
      <stop
         style="stop-opacity:1;stop-color:#c7eafb"
         offset="0.79908746"
         id="stop24" />
      <stop
         style="stop-opacity:1;stop-color:#4269b1"
         offset="1"
         id="stop26" />
    </linearGradient>
    <clipPath
       clipPathUnits="userSpaceOnUse"
       id="clipPath38">
      <path
         d="M 0,960 H 1920 V 0 H 0 Z"
         id="path36" />
    </clipPath>
  </defs>
  <g
     id="g8"
     transform="matrix(1.3333333,0,0,-1.3333333,0,1280)">
    <g
       id="g10">
      <g
         id="g12">
        <g
           id="g18">
          <g
             id="g20">
            <path
               d="M 0.001,0 H 1920 V 960 H 10e-4 Z"
               style="fill:url(#linearGradient28);stroke:none"
               id="path30" />
          </g>
        </g>
      </g>
    </g>
    <g
       id="g32">
      <g
         id="g34"
         clip-path="url(#clipPath38)">
        <g
           id="g40"
           transform="translate(1666.2729,741.4005)">
          <path
             d="m 0,0 c -0.097,0.346 -0.229,0.644 -0.372,0.847 -0.815,1.163 -1.635,2.32 -2.428,3.497 -1.026,1.528 -2.09,3.028 -3.196,4.5 -0.951,1.264 -1.747,2.642 -2.698,3.9 -0.882,1.164 -1.686,2.38 -2.55,3.554 -1.468,1.989 -2.826,4.06 -4.264,6.072 -1.152,1.612 -3.463,1.565 -4.559,0.604 -0.579,-0.507 -1.014,-1.154 -1.441,-1.798 -0.445,-0.678 -0.921,-1.335 -1.393,-1.994 -1.037,-1.448 -2.139,-2.859 -3.114,-4.342 -1.469,-2.236 -3.122,-4.34 -4.618,-6.555 C -31.366,7.2 -32.202,6.167 -32.929,5.089 -33.752,3.867 -34.58,2.64 -35.442,1.448 -35.997,0.68 -36.236,-0.096 -36.23,-0.918 v -0.011 c 0,-0.058 0.002,-0.115 0.006,-0.173 0,-0.012 0,-0.024 10e-4,-0.037 0,-0.005 10e-4,-0.009 10e-4,-0.014 0.019,-0.296 0.068,-0.598 0.144,-0.908 0.054,-0.216 0.304,-0.613 0.439,-0.764 0.175,-0.196 0.43,-0.381 0.737,-0.529 0.03,-0.02 0.06,-0.04 0.091,-0.058 0.029,-0.018 0.058,-0.035 0.089,-0.051 0.405,-0.221 0.868,-0.347 1.361,-0.349 h 0.013 c 0.034,0 0.065,0 0.098,0.002 0.298,0.009 0.584,0.066 0.853,0.16 0.627,0.218 1.155,0.649 1.5,1.205 0.064,0.073 0.126,0.147 0.186,0.223 0.165,0.21 0.315,0.431 0.457,0.657 0.196,0.309 1.611,2.31 1.611,2.31 0,0 10.523,0.01 12.061,0 0.893,-0.006 1.619,0.313 2.285,0.848 0.52,0.417 1,1.049 1.073,1.572 0.108,0.77 -0.191,1.64 -0.721,2.32 -0.61,0.784 -1.453,1.072 -2.415,1.074 -2.313,0.004 -7.687,-0.006 -8.234,-0.007 h -0.046 c 0,0 0.345,0.434 0.504,0.655 l 0.067,0.097 c 0.452,0.684 0.928,1.352 1.407,2.018 0.415,0.576 0.831,1.154 1.233,1.741 0.929,1.349 1.854,2.707 2.831,4.026 0.41,0.555 0.643,0.56 1.037,-0.025 0.375,-0.553 0.736,-1.115 1.122,-1.661 1.266,-1.785 2.565,-3.548 3.809,-5.349 2.45,-3.55 4.951,-7.065 7.485,-10.555 0.013,-0.018 0.026,-0.035 0.04,-0.054 0.266,-0.367 0.576,-0.652 0.913,-0.856 0.029,-0.019 0.058,-0.036 0.088,-0.052 0.422,-0.236 0.886,-0.351 1.362,-0.349 h 0.013 c 0.033,0 0.065,0 0.097,0.002 0.282,0.013 0.569,0.067 0.853,0.16 1.095,0.381 1.889,1.406 1.93,2.62 C 0.146,-0.669 0.087,-0.314 0,0 m -40.052,-0.66 v 21.337 c 0,1.528 -1.239,2.768 -2.768,2.768 -1.53,0 -2.769,-1.24 -2.769,-2.768 V -0.66 c 0,-1.529 1.239,-2.769 2.769,-2.769 1.529,0 2.768,1.24 2.768,2.769 m -50.695,13.262 c -0.302,0.037 -0.608,0.042 -0.912,0.042 -4.754,0.002 -9.507,0.002 -14.261,0 -0.629,-10e-4 -1.262,0.01 -1.886,-0.053 -0.677,-0.068 -1.329,-0.316 -1.78,-0.833 -0.854,-0.98 -0.94,-2.122 -0.318,-3.226 0.469,-0.833 1.286,-1.279 2.276,-1.282 2.763,-0.008 5.524,-0.003 8.287,-0.003 V 7.209 c 1.503,0 3.006,-10e-4 4.51,0 1.279,0 2.56,-10e-4 3.839,0.003 1.43,0.005 2.7,1.135 2.724,2.607 0.025,1.507 -0.899,2.59 -2.479,2.783 M -91.021,1.87 c -5.485,0 -10.97,0.015 -16.455,0.027 -1.455,0.003 -2.778,0.445 -4.045,1.147 -1.781,0.988 -3.059,2.429 -3.714,4.325 -0.797,2.306 -0.57,4.632 0.738,6.673 1.488,2.32 3.611,3.862 6.506,3.886 5.465,0.044 10.929,0.012 16.394,0.033 0.804,0.003 1.585,0.092 2.301,0.603 1.14,0.815 1.283,2.601 0.618,3.542 -0.686,0.973 -1.73,1.326 -2.857,1.331 -4.856,0.021 -9.71,-0.005 -14.566,0.002 -2.288,0.003 -4.521,-0.228 -6.678,-1.086 -1.934,-0.77 -3.54,-1.984 -4.896,-3.505 -1.143,-1.286 -2.029,-2.754 -2.604,-4.413 -0.94,-2.711 -1.043,-5.421 -0.255,-8.175 0.677,-2.359 1.93,-4.357 3.736,-6.011 2.319,-2.124 5.051,-3.417 8.17,-3.702 2.832,-0.258 5.685,-0.041 8.528,-0.055 2.844,0 5.688,-0.017 8.532,0.01 0.94,0.009 1.913,0.187 2.584,0.874 0.803,0.822 0.888,1.882 0.471,2.952 -0.369,0.945 -1.715,1.542 -2.508,1.542 m 37.241,17.71 c -2.724,2.682 -6.098,3.837 -9.879,3.85 -4.999,0.016 -9.997,0.005 -14.996,0.002 -0.65,0 -1.298,-0.02 -1.927,-0.233 -1.985,-0.673 -2.401,-2.651 -1.34,-4.15 0.569,-0.805 1.406,-1.067 2.339,-1.07 2.865,-0.008 5.73,-0.002 8.595,-0.002 v -0.016 c 2.581,0 5.161,-0.016 7.742,0.006 1.436,0.012 2.755,-0.334 4.011,-1.035 2.504,-1.397 4.574,-4.639 4.048,-8.051 -0.337,-2.198 -1.452,-3.859 -3.097,-5.236 -0.544,-0.457 -1.173,-0.8 -1.829,-1.073 -1.453,-0.603 -2.986,-0.724 -4.54,-0.72 -3.312,0.008 -6.624,0.002 -9.936,0.002 -0.63,0 -1.26,-0.006 -1.89,0.008 -0.379,0.01 -0.643,0.117 -0.634,0.609 0.033,1.868 0.038,3.737 0.033,5.605 -0.003,1.279 0.034,2.565 -0.078,3.836 -0.116,1.319 -1.241,2.424 -2.877,2.367 -1.27,-0.043 -2.486,-1.443 -2.439,-2.627 0.069,-1.745 0.022,-3.494 0.016,-5.24 -0.008,-2.377 -0.03,-4.753 -0.03,-7.13 0,-1.262 0.522,-2.101 1.544,-2.43 0.732,-0.237 1.483,-0.4 2.269,-0.398 5.182,0.012 10.363,10e-4 15.545,0.008 1.901,0.003 3.715,0.482 5.414,1.271 2.832,1.315 5.044,3.345 6.527,6.124 0.604,1.132 1.041,2.324 1.258,3.593 0.301,1.759 0.29,3.502 -0.068,5.26 -0.55,2.692 -1.855,4.973 -3.781,6.87 M -124.77,6.006 c -0.005,-1.545 -0.025,-3.089 -0.037,-4.634 -0.006,-0.871 0.078,-1.744 -0.062,-2.615 -0.166,-1.032 -0.967,-1.97 -1.924,-2.208 -0.169,-0.042 -0.336,-0.068 -0.5,-0.08 -0.451,-0.015 -0.935,0.08 -1.426,0.301 -0.09,0.041 -0.172,0.085 -0.252,0.133 -0.252,0.171 -0.478,0.389 -0.67,0.653 -0.083,0.13 -0.166,0.26 -0.249,0.39 -0.15,0.341 -0.231,0.723 -0.256,1.125 -0.004,0.104 -0.008,0.207 -0.009,0.311 -0.001,0.113 0,0.225 -0.001,0.339 0.002,0.221 0.006,0.442 0.006,0.664 0,2.999 0.004,5.997 0,8.996 v 0.37 c 0,0.023 -0.001,0.047 -0.001,0.07 v 0.165 c -10e-4,0.502 -0.011,1.008 -0.159,1.488 -0.19,0.988 -0.558,1.923 -1.128,2.781 -0.984,1.474 -2.283,2.617 -4.004,3.221 -0.034,0.011 -0.066,0.023 -0.098,0.034 -0.045,0.016 -0.091,0.032 -0.137,0.048 -0.118,0.041 -0.236,0.08 -0.355,0.115 l -0.035,0.012 c -0.009,0.002 -0.018,0.004 -0.028,0.006 -0.047,0.014 -0.094,0.027 -0.143,0.039 -0.944,0.25 -1.905,0.265 -2.868,0.244 -0.664,0.025 -1.323,0.023 -1.976,-0.038 -2.002,-0.046 -3.674,-0.96 -5.048,-2.29 -1.538,-1.49 -2.374,-3.393 -2.352,-5.615 0.028,-2.864 0.007,-5.728 0.006,-8.593 -0.001,-0.853 0.033,-1.708 -0.016,-2.558 -0.059,-1.037 -0.93,-2.04 -1.937,-2.335 -0.206,-0.049 -0.423,-0.08 -0.652,-0.088 -0.03,0 -0.061,-0.002 -0.09,-10e-4 -0.03,-10e-4 -0.06,10e-4 -0.09,10e-4 -0.229,0.008 -0.447,0.039 -0.653,0.088 -1.006,0.295 -1.878,1.298 -1.937,2.335 -0.047,0.85 -0.015,1.705 -0.016,2.558 -0.001,2.865 -0.022,5.729 0.007,8.593 0.021,2.222 -0.815,4.125 -2.353,5.615 -1.374,1.33 -3.046,2.244 -5.048,2.29 -0.652,0.061 -1.312,0.063 -1.975,0.038 -0.964,0.021 -1.925,0.006 -2.868,-0.244 -0.048,-0.012 -0.096,-0.025 -0.144,-0.039 -0.009,-0.002 -0.019,-0.004 -0.027,-0.006 l -0.036,-0.012 c -0.119,-0.035 -0.237,-0.074 -0.355,-0.115 -0.046,-0.016 -0.091,-0.032 -0.137,-0.048 -0.032,-0.011 -0.064,-0.023 -0.097,-0.034 -1.722,-0.604 -3.021,-1.747 -4.003,-3.221 -0.572,-0.858 -0.94,-1.793 -1.13,-2.781 -0.148,-0.48 -0.157,-0.986 -0.158,-1.488 V 9.821 c 0,-0.023 -0.001,-0.047 -0.001,-0.07 0,-0.123 0,-0.247 0.001,-0.37 -0.005,-2.999 0,-5.998 -0.001,-8.996 0,-0.222 0.004,-0.443 0.005,-0.664 0,-0.114 0,-0.226 0,-0.339 -10e-4,-0.104 -0.004,-0.207 -0.009,-0.311 -0.026,-0.402 -0.107,-0.784 -0.257,-1.125 -0.083,-0.13 -0.166,-0.26 -0.248,-0.39 -0.193,-0.264 -0.419,-0.482 -0.67,-0.653 -0.08,-0.048 -0.163,-0.092 -0.253,-0.133 -0.491,-0.221 -0.974,-0.316 -1.425,-0.301 -0.165,0.012 -0.332,0.038 -0.501,0.08 -0.957,0.238 -1.758,1.176 -1.924,2.208 -0.139,0.871 -0.054,1.744 -0.062,2.615 -0.012,1.545 -0.031,3.09 -0.037,4.635 v 1.719 c 0.004,0.665 0.011,1.33 0.024,1.995 0.058,2.805 0.744,5.425 2.402,7.775 1.541,2.184 3.476,3.807 5.928,4.859 1.829,0.786 3.753,0.999 5.703,1.078 0.204,0.007 0.41,0.012 0.615,0.015 0.132,0 0.265,0 0.399,-0.002 4.338,-0.072 8.048,-1.513 10.879,-4.908 0.163,-0.195 0.304,-0.31 0.452,-0.309 0.149,-10e-4 0.288,0.114 0.451,0.309 2.831,3.395 6.541,4.836 10.879,4.908 0.134,0.002 0.267,0.002 0.401,0.002 0.204,-0.003 0.409,-0.008 0.613,-0.015 1.95,-0.079 3.874,-0.292 5.703,-1.078 2.452,-1.052 4.388,-2.675 5.929,-4.859 1.657,-2.35 2.343,-4.97 2.401,-7.775 0.014,-0.665 0.021,-1.33 0.024,-1.995 z"
             style="fill:#304a9f;fill-opacity:1;fill-rule:nonzero;stroke:none"
             id="path42" />
        </g>
        <g
           id="g44"
           transform="translate(1529.1284,784.1319)">
          <path
             d="m 0,0 h -20.482 c -5.203,0 -9.9,3.765 -10.579,9.028 -0.816,6.301 4.05,11.76 10.113,11.76 H 0 c 1.948,0 3.538,1.669 3.402,3.722 -0.122,1.85 -1.788,3.206 -3.606,3.206 h -20.744 c -9.906,0 -20.387,-8.732 -19.418,-18.996 0.849,-8.995 11.15,-15.649 20.008,-15.649 h 18.609 c 3.171,0 4.665,1.028 5.052,2.599 C 3.865,-2.037 2.152,0 0,0 m 0,13.858 h -20.804 c -1.573,0 -3.061,-1.01 -3.446,-2.565 -0.566,-2.284 1.147,-4.363 3.302,-4.363 L 0,6.93 c 1.871,-0.032 3.411,1.538 3.411,3.479 0,1.909 -1.54,3.449 -3.411,3.449"
             style="fill:#304a9f;fill-opacity:1;fill-rule:evenodd;stroke:none"
             id="path46" />
        </g>
        <g
           id="g48"
           transform="translate(1544.7866,794.5411)">
          <path
             d="m 0,0 c 0,5.695 4.557,10.377 10.17,10.379 h 9.393 C 25.176,10.377 29.732,5.695 29.732,0 v -13.684 c 0,-1.621 1.006,-3.15 2.547,-3.545 2.248,-0.573 4.245,1.176 4.245,3.371 v 13.79 c 0,9.555 -7.665,17.376 -17.031,17.376 H 10.24 c -9.368,0 -17.031,-7.821 -17.031,-17.376 v -13.643 c 0,-1.603 0.991,-3.121 2.515,-3.516 2.237,-0.578 4.276,1.172 4.276,3.369 z"
             style="fill:#304a9f;fill-opacity:1;fill-rule:evenodd;stroke:none"
             id="path50" />
        </g>
        <g
           id="g52"
           transform="translate(1608.0903,811.8477)">
          <path
             d="m 0,0 c -1.116,0.062 -2.264,-0.462 -2.957,-1.479 -10.927,-15.89 -8.15,-11.762 -19.077,-27.653 -1.087,-1.571 -0.725,-3.727 0.814,-4.836 1.54,-1.077 3.653,-0.707 4.74,0.864 l 2.968,4.282 c 0.013,0.017 0.033,0.029 0.054,0.029 H 2.234 c 2.162,-0.036 3.88,2.064 3.295,4.356 -0.398,1.564 -1.9,2.574 -3.483,2.574 H -8.593 c -0.055,0 -0.087,0.061 -0.055,0.106 l 8.592,12.47 c 0.028,0.039 0.085,0.039 0.112,0 l 16.456,-23.817 c 1.086,-1.571 3.199,-1.941 4.739,-0.864 1.508,1.109 1.901,3.265 0.814,4.836 C 11.139,-13.241 13.915,-17.369 2.958,-1.479 2.265,-0.462 1.147,0.062 0,0"
             style="fill:#304a9f;fill-opacity:1;fill-rule:evenodd;stroke:none"
             id="path54" />
        </g>
        <g
           id="g56"
           transform="translate(1643.7407,777.2647)">
          <path
             d="m 0,0 c 1.147,-0.062 2.265,0.463 2.958,1.479 10.957,15.89 8.181,11.762 19.107,27.654 1.087,1.571 0.695,3.726 -0.814,4.835 -1.54,1.078 -3.652,0.708 -4.739,-0.862 L 0.056,9.288 c -0.027,-0.039 -0.084,-0.039 -0.112,0 L -16.48,33.106 c -1.087,1.57 -3.2,1.94 -4.74,0.862 -1.539,-1.109 -1.901,-3.264 -0.814,-4.835 C -11.107,13.241 -13.884,17.369 -2.957,1.479 -2.264,0.463 -1.116,-0.062 0,0"
             style="fill:#304a9f;fill-opacity:1;fill-rule:evenodd;stroke:none"
             id="path58" />
        </g>
        <g
           id="g60"
           transform="translate(1463.9097,794.5362)">
          <path
             d="m 0,0 c -1.44,0 -2.778,0.437 -3.892,1.181 -0.031,0.018 -0.065,0.024 -0.099,0.008 -6.28,-2.786 -13.153,-6.439 -20.646,-10.971 -11.201,-6.774 -22.491,-11.57 -33.551,-14.253 -6.434,-1.564 -12.802,-2.415 -19.015,-2.554 -0.063,0 -0.112,-0.057 -0.107,-0.12 0.405,-4.433 1.437,-8.685 3.011,-12.662 0.948,0.483 2.023,0.758 3.162,0.758 2.394,0 4.508,-1.202 5.773,-3.034 0.023,-0.035 0.062,-0.053 0.102,-0.044 10.636,1.855 23.471,6.117 37.85,14.809 15.597,9.432 28.784,15.218 39.828,17.444 0.063,0.014 0.1,0.08 0.081,0.142 C 11.106,-4.642 9.001,-0.298 6.304,3.609 6.257,3.674 6.16,3.669 6.12,3.599 4.924,1.453 2.632,0 0,0"
             style="fill:#304a9f;fill-opacity:1;fill-rule:nonzero;stroke:none"
             id="path62" />
        </g>
        <g
           id="g64"
           transform="translate(1457.02,800.2813)">
          <path
             d="m 0,0 c -0.073,0.407 -0.114,0.828 -0.114,1.259 0,2.8 1.643,5.214 4.016,6.335 0.074,0.034 0.086,0.131 0.024,0.18 -2.724,2.166 -5.697,4.028 -8.873,5.539 -0.033,0.015 -0.071,0.015 -0.102,-0.003 -4.019,-2.073 -8.248,-4.454 -12.696,-7.146 -11.203,-6.77 -22.493,-11.569 -33.553,-14.253 -2.219,-0.538 -4.428,-0.99 -6.625,-1.361 -0.037,-0.006 -0.065,-0.029 -0.079,-0.064 -1.006,-2.631 -3.554,-4.5 -6.541,-4.5 -1.233,0 -2.394,0.322 -3.4,0.884 -0.06,0.031 -0.133,0.005 -0.155,-0.06 -1.486,-4.296 -2.356,-8.883 -2.498,-13.653 -0.003,-0.065 0.05,-0.12 0.116,-0.117 12.306,0.29 29.584,3.708 49.958,16.027 C -13.153,-6.477 -6.324,-2.839 0,0"
             style="fill:#304a9f;fill-opacity:1;fill-rule:nonzero;stroke:none"
             id="path66" />
        </g>
        <g
           id="g68"
           transform="translate(1398.7808,796.3292)">
          <path
             d="m 0,0 c 0.021,-0.042 0.064,-0.067 0.112,-0.06 10.587,1.882 23.335,6.144 37.604,14.771 2.967,1.793 5.844,3.452 8.638,4.984 0.088,0.047 0.07,0.178 -0.027,0.206 -4.045,1.166 -8.32,1.793 -12.742,1.793 C 18.565,21.694 5.227,14.489 -3.16,3.346 -3.202,3.291 -3.181,3.215 -3.121,3.187 -1.768,2.493 -0.667,1.372 0,0"
             style="fill:#304a9f;fill-opacity:1;fill-rule:nonzero;stroke:none"
             id="path70" />
        </g>
        <g
           id="g72"
           transform="translate(1469.6431,756.0518)">
          <path
             d="m 0,0 c -0.028,0.031 -0.07,0.042 -0.109,0.029 -8.696,-2.859 -18.742,-7.746 -30.261,-14.711 -8.149,-4.928 -16.344,-8.804 -24.464,-11.588 -0.097,-0.034 -0.103,-0.169 -0.006,-0.209 5.41,-2.24 11.343,-3.476 17.563,-3.476 18.861,0 35.064,11.363 42.149,27.613 0.031,0.071 -0.018,0.147 -0.097,0.15 C 2.896,-2.106 1.21,-1.283 0,0"
             style="fill:#304a9f;fill-opacity:1;fill-rule:nonzero;stroke:none"
             id="path74" />
        </g>
        <g
           id="g76"
           transform="translate(1405.7212,748.8087)">
          <path
             d="M 0,0 C -2.01,-0.489 -4.015,-0.904 -6.012,-1.255 -6.053,-1.263 -6.084,-1.294 -6.093,-1.336 -6.466,-3.11 -7.509,-4.639 -8.949,-5.643 -9.001,-5.677 -9.012,-5.75 -8.97,-5.8 c 3.108,-3.802 6.811,-7.102 10.971,-9.75 0.026,-0.015 0.061,-0.021 0.092,-0.013 8.577,2.415 18.22,6.392 28.682,12.716 11.713,7.085 22.071,12.112 31.181,15.119 0.039,0.016 0.065,0.052 0.067,0.094 0.167,3.719 3.234,6.686 6.997,6.686 1.197,0 2.326,-0.304 3.311,-0.834 0.18,1.654 0.276,3.332 0.276,5.033 0,2.645 -0.224,5.232 -0.653,7.754 -0.01,0.062 -0.072,0.107 -0.136,0.095 C 61.459,29.053 48.792,23.468 33.553,14.253 22.35,7.479 11.063,2.684 0,0"
             style="fill:#304a9f;fill-opacity:1;fill-rule:nonzero;stroke:none"
             id="path78" />
        </g>
      </g>
    </g>
    <text
       xml:space="preserve"
       transform="matrix(1,0,0,-1,1386.4243,202.2568)"
       style="font-variant:normal;font-weight:500;font-stretch:normal;font-size:24px;font-family:'Be Vietnam Pro Medium';-inkscape-font-specification:BeVietnamPro-Medium;writing-mode:lr-tb;fill:#304a9f;fill-opacity:1;fill-rule:nonzero;stroke:none"
       id="text84"><tspan
         x="0 18.648001 38.495998 56.208 75.047997 80.568001 96.648003 113.04 118.56 137.20799 157.056 162.576 178.32001 195.528 213.45599"
         y="0"
         id="tspan80">CÔNG TY CỔ PHẦN</tspan><tspan
         x="0 15.888 31.608 49.68 66.071999 81.311996 99.024002 104.544 120.432 137.64 157.48801 175.2 194.03999 199.56 214.608 232.32001 248.136"
         y="28.799999"
         id="tspan82">TRUYỀN THÔNG ENAV</tspan></text>
    <text
       xml:space="preserve"
       transform="matrix(1,0,0,-1,1386.4243,149.4565)"
       style="font-variant:normal;font-weight:200;font-stretch:normal;font-size:20px;font-family:'Be Vietnam Pro ExtraLight';-inkscape-font-specification:BeVietnamPro-ExtraLight;writing-mode:lr-tb;fill:#304a9f;fill-opacity:1;fill-rule:nonzero;stroke:none"
       id="text88"><tspan
         x="0 17.02 28.940001 41.68 46.720001 51.32 64.040001 70.919998 83.639999 96.779999 109.44 122.3 135.10001 145.8 158.94"
         y="0"
         id="tspan86">MST: 0109346768</tspan></text>
    <text
       xml:space="preserve"
       transform="matrix(1,0,0,-1,1386.4243,132.6567)"
       style="font-variant:normal;font-weight:200;font-stretch:normal;font-size:14px;font-family:'Be Vietnam Pro ExtraLight';-inkscape-font-specification:BeVietnamPro-ExtraLight;writing-mode:lr-tb;fill:#304a9f;fill-opacity:1;fill-rule:nonzero;stroke:none"
       id="text98"><tspan
         x="0 10.71 14.014 22.848 26.068001 34.523998 42.560001 45.863998 49.391998 52.612 61.529999 70.966003 80.975998 84.195999 93.632004 102.41 105.602 114.52 117.768 125.762 134.554 141.25999 144.92799 148.14799 154.812 163.73 166.95 175.91 184.142 192.23399 195.45399 203.57401 212.282 220.73801 223.95799 232.078 240.856 248.85001 257.642 260.862 272.048 279.84601 288.65201 296.604 300.272 303.492 312.15799 320.194 328.258 337.17599 345.17001 353.96201"
         y="0"
         id="tspan90">Địa chỉ: THD Holdings, số 677 Lạc Long Quân, Phường </tspan><tspan
         x="0 8.6660004 16.702 24.667999 27.888 36.806 46.242001 54.306 63.223999 71.216599 80.008598 83.676598 86.896599 95.814598 103.6126 112.4186 120.3706 123.5906 131.2486 139.9846 147.72659 150.94659 160.3826 169.3006 172.9686 176.1886 185.1066 193.7726 197.3006 200.5206 209.9566 218.7626 221.9826 232.09061 241.00861"
         y="16.799999"
         id="tspan92">Phú THượng, quận Tây Hồ, TP. Hà Nội</tspan><tspan
         x="0 9.0579996 17.864 25.816 29.035999 37.953999 46.032001 54.950001 62.9426 71.734596 75.262604 78.482597 86.140602 94.542 106.33 114.282 117.502 126.7 130.228 138.726 147.63 151.298 154.51801 163.31 171.388 180.222 183.47 186.69 195.314 204.092 212.04401 215.26401 222.922 231.32201 243.11 251.062 254.73 257.95001 266.742 274.82001 283.65399 286.90201 290.12201 298.746 307.52399 315.47601 318.69601 329.336 332.58401 338.01599 345.758 349.42599"
         y="33.599998"
         id="tspan94">Văn phòng: Town 6.20, Khai Sơn Town, Khai Sơn City, </tspan><tspan
         x="0 8.9180002 16.954 25.018 33.936001 41.93 50.722 53.942001 62.860001 70.896004 78.958603 87.876602 95.870598 104.6626 107.8826 116.8006 124.8786 133.7126 141.6646 149.70061 153.36861 156.58859 165.50661 173.3046 182.1106 190.06261 193.28259 201.4026 210.1806 218.17461 226.9666 230.1866 239.2726 242.5206 250.92059 258.87259 262.54059 265.76059 274.67859 283.3446 286.87259 290.09259 299.52859 308.33459 311.5546 321.6626 330.5806"
         y="50.400002"
         id="tspan96">phường Thượng Thanh, quận Long Biên, TP. Hà Nội</tspan></text>
    <text
       xml:space="preserve"
       transform="matrix(1,0,0,-1,196.1562,302.1084)"
       style="font-variant:normal;font-weight:200;font-stretch:normal;font-size:65px;font-family:'Be Vietnam Pro ExtraLight';-inkscape-font-specification:BeVietnamPro-ExtraLight;writing-mode:lr-tb;fill:#304a9f;fill-opacity:1;fill-rule:nonzero;stroke:none"
       id="text102"><tspan
         x="0 41.404999 78.910004 119.925 156.845 190.255 205.205 239.06351 279.81851 316.0235"
         y="0"
         id="tspan100">Thank you!</tspan></text>
  </g>
</svg>
