<?xml version="1.0" standalone="no"?>
<!DOCTYPE svg PUBLIC "-//W3C//DTD SVG 20010904//EN"
 "http://www.w3.org/TR/2001/REC-SVG-20010904/DTD/svg10.dtd">
<svg version="1.0" xmlns="http://www.w3.org/2000/svg"
 width="281.000000pt" height="93.000000pt" viewBox="0 0 281.000000 93.000000"
 preserveAspectRatio="xMidYMid meet">

<g transform="translate(0.000000,93.000000) scale(0.100000,-0.100000)"
fill="#000000" stroke="none">
<path d="M328 901 c-76 -25 -134 -60 -187 -115 -38 -38 -42 -47 -31 -61 18
-22 46 -19 148 14 98 32 158 60 267 125 68 40 69 41 40 47 -61 13 -180 8 -237
-10z"/>
<path d="M570 828 c-123 -74 -233 -123 -341 -154 -52 -15 -104 -35 -116 -46
-12 -11 -36 -21 -54 -22 -35 -2 -39 -9 -52 -88 l-6 -38 48 0 c87 0 238 45 361
109 272 139 300 155 300 177 0 11 9 29 20 39 20 18 20 19 -22 47 -24 15 -45
28 -48 28 -3 -1 -43 -24 -90 -52z"/>
<path d="M1132 834 c-111 -55 -136 -182 -50 -260 51 -47 88 -58 214 -62 134
-5 167 4 162 41 -3 21 -9 22 -133 27 -134 5 -162 13 -189 52 -29 41 -11 124
31 144 10 5 79 11 153 14 l135 5 0 30 0 30 -135 3 c-128 2 -138 1 -188 -24z"/>
<path d="M1625 846 c-37 -17 -80 -62 -94 -99 -6 -16 -11 -71 -11 -122 0 -83 2
-96 19 -105 38 -20 51 11 51 116 0 92 1 97 29 125 28 28 34 29 115 29 75 0 88
-3 113 -24 27 -23 28 -29 33 -131 6 -112 15 -134 52 -114 16 8 18 24 18 112 0
87 -4 108 -23 141 -34 61 -91 86 -191 86 -45 -1 -94 -7 -111 -14z"/>
<path d="M2100 714 c-56 -80 -103 -151 -106 -159 -3 -7 2 -20 11 -29 19 -19
48 -8 65 24 9 18 21 20 95 20 63 0 87 4 99 16 34 33 8 54 -66 54 -32 0 -58 2
-58 5 0 10 73 115 80 115 3 0 43 -53 88 -119 45 -65 88 -121 96 -124 19 -8 49
21 42 40 -3 8 -51 79 -106 159 -69 98 -107 144 -120 144 -13 0 -50 -46 -120
-146z"/>
<path d="M2360 846 c-17 -21 -14 -26 91 -178 99 -144 113 -160 135 -151 8 3
60 70 115 149 104 149 117 186 73 192 -18 3 -38 -21 -110 -124 -87 -127 -88
-128 -103 -104 -79 120 -159 225 -172 228 -9 1 -22 -4 -29 -12z"/>
<path d="M821 703 c-10 -11 -25 -14 -51 -10 -32 4 -54 -4 -146 -54 -285 -154
-369 -188 -528 -210 -96 -13 -97 -15 -74 -90 10 -34 15 -39 41 -39 17 0 38 -7
48 -16 16 -14 24 -14 95 6 104 28 197 69 312 137 120 70 244 128 322 150 33 9
60 20 60 25 0 15 -51 118 -58 118 -4 -1 -13 -8 -21 -17z"/>
<path d="M1193 704 c-15 -39 9 -49 118 -52 134 -4 151 1 147 36 l-3 27 -128 3
c-111 2 -128 0 -134 -14z"/>
<path d="M838 520 c-93 -32 -163 -66 -293 -140 -139 -80 -230 -119 -334 -146
-53 -14 -76 -25 -88 -43 -16 -24 -15 -26 31 -68 27 -24 57 -43 67 -43 33 0
170 57 254 106 95 55 315 164 331 164 7 0 15 11 18 25 8 30 40 49 72 42 23 -4
24 -2 24 59 0 73 1 72 -82 44z"/>
<path d="M1103 375 c-56 -24 -74 -67 -71 -165 3 -77 5 -85 23 -85 18 0 21 8
25 81 6 93 20 118 75 128 43 8 93 -15 100 -47 3 -12 6 -51 7 -86 2 -49 7 -67
21 -75 26 -16 37 8 37 86 0 36 3 74 6 83 10 26 61 47 99 39 55 -10 69 -35 75
-128 4 -73 7 -81 25 -81 18 0 20 8 23 85 2 71 -1 90 -18 118 -39 64 -147 80
-211 33 l-28 -21 -37 25 c-42 29 -100 32 -151 10z"/>
<path d="M1674 380 c-32 -13 -72 -67 -80 -105 -8 -42 19 -100 59 -129 24 -18
46 -21 135 -24 110 -3 139 4 129 32 -5 13 -23 16 -95 16 -132 0 -172 20 -172
85 0 33 14 60 37 71 10 4 65 10 123 13 96 6 105 8 105 26 0 19 -7 20 -110 22
-60 1 -119 -2 -131 -7z"/>
<path d="M1983 374 c-10 -26 9 -32 114 -36 91 -3 104 -5 127 -27 33 -31 34
-71 2 -108 -22 -26 -28 -27 -107 -28 l-84 0 -5 60 c-4 52 -8 60 -25 60 -18 0
-20 -7 -20 -85 l0 -85 105 -3 c121 -3 162 11 193 66 25 42 24 108 -1 141 -34
47 -77 61 -190 61 -84 0 -104 -3 -109 -16z"/>
<path d="M2355 378 c-3 -8 -4 -68 -3 -134 3 -111 4 -119 23 -119 19 0 20 7 20
130 0 116 -2 130 -18 133 -9 2 -19 -3 -22 -10z"/>
<path d="M2521 273 c-45 -64 -80 -124 -79 -132 5 -25 45 -26 58 -2 9 18 20 21
73 21 73 0 110 18 88 43 -7 9 -32 17 -58 19 l-45 3 32 43 32 44 30 -44 c91
-126 110 -149 126 -146 32 6 17 47 -61 157 -51 74 -84 111 -96 111 -12 0 -46
-39 -100 -117z"/>
<path d="M745 267 c-38 -18 -101 -50 -140 -71 -141 -78 -276 -146 -290 -146
-8 0 -15 -4 -15 -10 0 -17 84 -34 170 -33 126 1 230 43 316 129 34 35 94 120
94 134 0 7 -46 30 -58 29 -4 0 -38 -15 -77 -32z"/>
<path d="M1703 265 c-11 -29 12 -36 113 -33 91 3 99 5 99 23 0 19 -8 20 -103
23 -86 2 -103 0 -109 -13z"/>
</g>
</svg>
